Coordinates
version=1
nRows=19
nColumns=36
inDegrees=yes

Units are S.I. units (second, meters, Newtons, ...)
If the header above contains a line with 'inDegrees', this indicates whether rotational values are in degrees (yes) or radians (no).

endheader
time	pelvis_tilt	pelvis_list	pelvis_rotation	pelvis_tx	pelvis_ty	pelvis_tz	hip_flexion_r	hip_adduction_r	hip_rotation_r	knee_angle_r	knee_angle_r_beta	ankle_angle_r	subtalar_angle_r	mtp_angle_r	hip_flexion_l	hip_adduction_l	hip_rotation_l	knee_angle_l	knee_angle_l_beta	ankle_angle_l	subtalar_angle_l	mtp_angle_l	lumbar_extension	lumbar_bending	lumbar_rotation	arm_flex_r	arm_add_r	arm_rot_r	elbow_flex_r	pro_sup_r	arm_flex_l	arm_add_l	arm_rot_l	elbow_flex_l	pro_sup_l
      2.30000000	      8.47678342	     -4.14062269	      3.14941983	      0.53389596	      0.89382743	      0.01193680	     31.92534595	      1.97288229	      1.93479283	      4.58900371	      0.08009322	      1.27456267	     -9.52047884	     -7.49999987	      5.86703431	      2.55784862	     -0.45061551	     40.18399858	      0.70134308	     24.60318900	    -11.64044025	     -7.49999987	    -14.57457284	      0.01238243	      1.88748791	     39.97854644	     12.90664522	     62.19618535	    127.82542999	     99.26880188	     35.51156329	      9.92447091	     71.98978471	    129.07478666	     93.90249168
      2.31666670	      8.08188914	     -3.98310843	      3.36443448	      0.53458727	      0.89068972	      0.01207701	     32.32593570	      1.57511492	      1.97519737	      4.56730667	      0.07971454	      0.81258540	     -9.95876986	     -7.49999987	      6.65885618	      2.80819287	     -0.39961132	     41.26850987	      0.72027137	     25.04519230	    -11.41629375	     -7.49999987	    -14.75681899	      0.24800143	      2.40728337	     39.88541716	     12.91808880	     62.69546152	    128.05354231	     98.07324153	     35.48345660	      9.89832091	     72.25652542	    129.59483499	     92.78820568
      2.33333330	      7.92209153	     -3.85834819	      3.43450194	      0.53498596	      0.88766866	      0.01185845	     32.60436272	      1.26274055	      1.79782646	      4.44102990	      0.07751059	      0.68949255	     -9.66999606	     -7.49999987	      7.16798578	      2.95377645	     -0.43781838	     41.94097272	      0.73200807	     25.62680047	    -11.21023663	     -7.49999987	    -15.16125979	      0.47541087	      2.73520542	     39.91540047	     12.94692650	     62.95033564	    128.21888518	     98.74200656	     35.37085080	      9.67849119	     72.07915136	    130.11642539	     94.14311019
      2.35000000	      7.50816721	     -3.81470332	      3.37111879	      0.53492635	      0.88149970	      0.01199056	     33.06788162	      1.13343950	      2.08111830	      4.19961267	      0.07329707	      0.37062277	    -10.11106926	     -7.49999987	      8.14831355	      2.96195264	     -0.61328523	     43.11159754	      0.75243932	     26.36819872	    -10.92390273	     -7.49999987	    -15.23398971	      0.52946233	      3.01842662	     40.01069073	     13.06796868	     63.62589517	    128.54125983	     97.96125410	     35.21586945	      9.51352253	     72.00869554	    130.48049921	     94.00977027
      2.36666670	      7.02963478	     -3.75007516	      3.37331266	      0.53498669	      0.87657442	      0.01207057	     33.73043532	      0.94191292	      2.47697401	      4.10634709	      0.07166928	      0.19568146	    -10.70386019	     -7.49999987	      9.10610957	      3.00342049	     -0.88855083	     44.19650967	      0.77137461	     26.95211380	    -10.63147623	     -7.49999987	    -15.24319024	      0.60846897	      3.01453534	     40.15924825	     13.18237048	     64.17297523	    128.77035647	     98.15318175	     35.20003889	      9.26458312	     71.88408235	    130.79817420	     94.17643238
      2.38333330	      6.77662546	     -3.63963651	      3.24006800	      0.53466686	      0.87271227	      0.01251597	     34.15166959	      0.84936737	      2.57670401	      4.04210778	      0.07054809	      0.08382963	    -10.90214965	     -7.49999987	     10.09421669	      3.02391852	     -1.19319673	     45.71643601	      0.79790233	     27.58033635	    -10.49417268	     -7.49999987	    -15.38914138	      0.52087439	      3.18771935	     40.61105962	     13.11306075	     64.19227387	    128.93118314	     94.79878089	     35.52768931	      9.22703915	     71.96510197	    130.80007346	     91.17732878
      2.40000000	      6.59154312	     -3.68837427	      2.82889346	      0.53903317	      0.86664590	      0.00906655	     34.45709292	      0.85666277	      3.05302330	      4.35890867	      0.07607731	     -0.36305664	    -12.27889339	     -7.49999987	     10.78142865	      3.08017198	     -1.63864379	     47.18203534	      0.82348186	     28.54440248	    -10.27215430	     -7.49999987	    -15.28437659	      0.73524580	      3.51293897	     40.74553499	     13.09180860	     64.02894680	    128.83386089	     96.68377756	     35.52813834	      9.30920826	     71.62600731	    130.60935464	     94.70186725
      2.41666670	      6.35644320	     -3.47990876	      2.60860366	      0.53926309	      0.86543036	      0.00899470	     34.41629190	      0.64206422	      3.22334685	      3.93383883	      0.06865844	     -0.31569875	    -12.80608036	     -7.49999987	     11.52306343	      3.55847634	     -1.54889946	     48.36124431	      0.84406294	     28.28857959	    -10.58544618	     -7.49999987	    -15.18934537	      0.57197561	      3.55513922	     40.58372171	     13.11593968	     64.24656907	    128.92565300	     96.55836168	     35.70803207	      9.15294609	     71.04418524	    130.17470971	     94.68347869
      2.43333330	      6.45323306	     -3.15550544	      2.48184148	      0.54258170	      0.86321852	      0.00703392	     34.03347511	      0.34741554	      3.20603590	      3.60738381	      0.06296072	      0.16925862	    -12.96062688	     -7.49999987	     11.71971624	      4.13187959	     -1.44857691	     49.29242442	      0.86031510	     28.50575441	    -10.89154157	     -7.49999987	    -15.34206893	      0.45584628	      3.81421811	     40.45188767	     13.14354861	     64.33919385	    128.88367759	     96.55861738	     35.66909410	      8.99403150	     70.81971402	    130.04475301	     94.67268327
      2.45000000	      6.33799772	     -3.31342269	      2.49594196	      0.54273793	      0.85842861	      0.00684468	     34.10245024	      0.36935542	      3.19699104	      3.65859726	      0.06385457	      0.51477948	    -12.94899184	     -7.49999987	     12.09890884	      4.43526913	     -0.77469215	     50.11525001	      0.87467612	     29.39880043	    -11.80399515	     -7.49999987	    -15.26216321	      0.91241909	      3.96073121	     40.43446656	     13.12402359	     64.59310492	    129.09795774	     96.54201591	     35.79858419	      9.19725900	     69.54041327	    129.32262849	     94.59668889
      2.46666670	      6.32136962	     -3.25366262	      2.58557716	      0.54271489	      0.85763751	      0.00714840	     34.03616640	      0.37091853	      2.92068209	      3.64266227	      0.06357645	      1.20904470	    -11.69565143	     -7.49999987	     12.66114337	      4.73700093	     -0.33385798	     51.43459578	      0.89770305	     29.40257141	    -13.20240336	     -7.49999987	    -15.19467257	      1.04621927	      4.09092402	     40.60649928	     13.19728627	     64.84196817	    129.18138979	     93.72889227	     35.82390808	      9.24374700	     68.53982588	    128.59876303	     91.83516929
      2.48333330	      6.29045336	     -3.53960091	      2.81489568	      0.54283561	      0.85099873	      0.00682720	     34.09967066	      0.47845132	      2.70139085	      3.62530294	      0.06327347	      2.01147871	    -10.95978864	     -7.49999987	     13.45638793	      4.73647954	      0.14980871	     53.11182725	      0.92697626	     30.36070587	    -13.75762022	     -7.49999987	    -15.34734153	      1.49700067	      4.14869348	     40.91393942	     13.14765030	     64.81357363	    129.31865675	     93.10147398	     35.84323092	      9.48538024	     67.98629206	    128.23690840	     91.39195089
      2.50000000	      6.23343137	     -3.28987655	      2.97996363	      0.54303046	      0.85014813	      0.00693220	     33.99308039	      0.22383526	      3.05885844	      3.23919496	      0.05653462	      1.85622300	    -11.19184389	     -7.49999987	     13.80219565	      5.18385116	      0.39926895	     53.85695119	      0.93998112	     30.83212420	    -14.12913347	     -7.49999987	    -15.24925213	      1.19292212	      4.16274024	     41.04493960	     13.15651091	     64.19710432	    129.21327570	     91.09622995	     35.65132818	      9.55135520	     67.74439259	    128.06030414	     89.44127300
      2.51666670	      5.55761159	     -3.39160974	      2.91201790	      0.54343937	      0.83840732	      0.00705805	     35.02438988	      0.32603312	      3.38061951	      3.29465465	      0.05750257	      2.02926920	    -11.43896003	     -7.49999987	     15.57422477	      5.20854946	      0.28362347	     55.84871537	      0.97474397	     32.07639109	    -14.30081143	     -7.49999987	    -14.68761263	      1.30834449	      4.37260971	     41.15885053	     13.38303518	     63.88465573	    128.99011287	     95.44716438	     35.28042334	      9.91746247	     67.74265977	    128.03506258	     93.68754672
      2.53333330	      5.26694458	     -3.52578437	      2.65164425	      0.54371332	      0.83582355	      0.00683694	     35.64867402	      0.55146859	      3.52105239	      3.72572449	      0.06502616	      2.06713531	    -11.44407152	     -7.49999987	     16.69264068	      4.94944528	     -0.07097550	     57.39839786	      1.00179103	     32.85974510	    -14.00012715	     -7.49999987	    -14.65971742	      1.41114244	      4.47501270	     41.41928656	     13.42840316	     63.98065800	    128.56453553	     92.60032437	     35.45761271	      9.75350405	     68.00592093	    127.75858236	     90.81260863
      2.55000000	      4.67329934	     -3.49481531	      2.77060218	      0.54421469	      0.82919271	      0.00616867	     36.81463505	      0.38274297	      3.57083952	      4.34183022	      0.07577923	      1.99317859	    -11.94576502	     -7.49999987	     18.08464349	      4.97534917	     -0.42025230	     59.01320469	      1.02997472	     33.82093142	    -13.70231060	     -7.49999987	    -14.13018763	      1.42799345	      4.48889072	     41.29699820	     13.43848981	     63.41615465	    128.22718007	     95.91914645	     35.76541655	      9.74868300	     68.01290119	    127.45592705	     93.11290443
      2.56666670	      4.44163537	     -3.44852633	      2.87777603	      0.54370368	      0.82644775	      0.00637636	     37.40545530	      0.22894501	      3.62080175	      4.82901549	      0.08428222	      1.79643952	    -12.58127481	     -7.49999987	     18.95879599	      4.82668104	     -0.80138758	     60.36976295	      1.05365113	     34.52156604	    -13.13278028	     -7.49999987	    -14.00344909	      1.34249720	      4.54034631	     41.22055478	     13.24757958	     63.30993579	    128.17933724	     93.82214949	     36.11993478	      9.66853499	     68.10103308	    127.07817241	     90.89370898
      2.58333330	      4.44920893	     -3.05461581	      3.13402165	      0.54414014	      0.82649019	      0.00603027	     37.30292238	     -0.31611955	      3.60082806	      4.71914407	      0.08236460	      1.75773099	    -12.70492485	     -7.49999987	     19.58215872	      4.98325663	     -1.09464207	     61.44273744	      1.07237807	     33.80649244	    -12.74678501	     -7.49999987	    -14.27589900	      0.92366235	      4.60271672	     41.27908004	     13.39209297	     63.51927493	    127.86099655	     95.63792113	     36.61193626	      9.67074233	     68.53038188	    126.91176452	     91.68781083
      2.60000000	      4.68715356	     -3.02057219	      3.44720807	      0.54437990	      0.82351413	      0.00565647	     36.95671789	     -0.50263752	      3.60855322	      4.71760799	      0.08233779	      2.09143464	    -12.49195455	     -7.49999987	     20.12706116	      4.89851832	     -1.09668968	     62.77124308	      1.09556487	     33.41423550	    -12.52192525	     -7.49999987	    -14.86237721	      0.92255966	      4.71892207	     41.58123577	     13.39141838	     63.62801609	    127.49094616	     93.38617478	     37.21782092	      9.75515005	     69.00406716	    126.71408310	     89.22230961
